<svg xmlns:svg="http://www.w3.org/2000/svg" xmlns="http://www.w3.org/2000/svg"
   version="1.1"
   width="512" height="512" viewBox="0 0 512 512" enable-background="new 0 0 512 512" xml:space="preserve">
  <style>
    .light {
      fill: #48a6ff;
    }
    .medium {
      fill: #007ff6;
    }
    .dark {
      fill: #0061bc;
    }
  </style>
  <g transform="translate(0,-540.36218)">
    <g transform="matrix(0.64079618,0,0,0.64079618,-344.51715,500.99768)">
      <path class="light"
         d="m 684.70372,278.76725 c 84.14728,48.5807 168.2946,97.1615 252.44192,145.7423 84.14876,-48.5834 168.29756,-97.1667 252.44636,-145.75 -84.1473,-48.5808 -168.2946,-97.1616 -252.44191,-145.7423 -84.1488,48.5833 -168.29761,97.1667 -252.44637,145.75 z" />
      <path class="medium"
         d="m 684.69244,278.68945 c 2e-4,97.1642 0.004,194.3282 0.004,291.4924 0.0271,0.016 0.0541,0.031 0.0812,0.047 5.1e-4,48.58202 0.003,97.16402 0.002,145.74612 42.0744,24.2917 84.1489,48.5833 126.2232,72.875 -7e-4,-48.582 -0.002,-97.1642 -0.002,-145.7461 42.04735,24.276 84.09468,48.552 126.14201,72.8281 l -0.004,-291.49232 c -84.14891,-48.5833 -168.29731,-97.1667 -252.44641,-145.75 z" />
      <path class="dark"
         d="m 937.14285,715.97877 c 42.0735,24.2906 84.14815,48.5795 126.22095,72.8711 42.0743,-24.2916 84.1488,-48.5835 126.2232,-72.8749 -42.0737,-24.2906 -84.1476,-48.5802 -126.2209,-72.8712 42.0744,-24.2917 84.1488,-48.5833 126.2232,-72.87502 10e-4,-97.1641 0,-194.3282 0,-291.4923 -84.1488,48.5833 -168.2976,97.1666 -252.44644,145.75 -0.001,97.1641 -0.003,194.32822 -0.004,291.49232 z" />
      <path style="fill: #fff"
         d="m 937.15824,279.11535 c -41.94896,24.2193 -83.89452,48.437 -125.84375,72.6562 -0.12534,-0.072 -0.24966,-0.1463 -0.375,-0.2187 l 0,0.4375 c -10e-5,48.4376 0,96.8749 0,145.3125 21.035,12.1446 42.05901,24.3004 63.09375,36.4375 0,24.2916 10e-5,48.5833 0,72.87502 21.03655,-12.1459 42.0571,-24.29202 63.09375,-36.43752 0,-0.021 0,-0.042 0,-0.062 0.0123,0.01 0.0189,0.024 0.0312,0.031 42.0731,-24.2917 84.14541,-48.5527 126.21871,-72.8437 0,-48.448 10e-5,-96.8959 0,-145.3438 l 0,-0.4063 c -0.1175,0.068 -0.2262,0.1509 -0.3437,0.2188 -41.9605,-24.2255 -83.91512,-48.4299 -125.87501,-72.6563 z" />
      <g transform="translate(1951.801,-458.0683)">
        <path class="light"
           d="m -1197.1428,239.85715 a 53.57143,53.57143 0 1 1 -107.1429,0 53.57143,53.57143 0 1 1 107.1429,0 z"
           transform="matrix(0.421875,0,0,0.421875,-548.01895,799.74388)" />
        <path class="medium"
           d="m -1197.1428,239.85715 a 53.57143,53.57143 0 1 1 -107.1429,0 53.57143,53.57143 0 1 1 107.1429,0 z"
           transform="matrix(0.421875,0,0,0.421875,-486.99774,799.74388)" />
        <path class="dark"
           d="m -1197.1428,239.85715 a 53.57143,53.57143 0 1 1 -107.1429,0 53.57143,53.57143 0 1 1 107.1429,0 z"
           transform="matrix(0.421875,0,0,0.421875,-425.97657,799.74388)" />
      </g>
    </g>
  </g>
</svg>
