<!-- Created with Inkscape (http://www.inkscape.org/) -->
<svg xmlns:rdf="http://www.w3.org/1999/02/22-rdf-syntax-ns#" xmlns="http://www.w3.org/2000/svg" height="100%" width="100%" version="1.1" xmlns:cc="http://creativecommons.org/ns#" xmlns:dc="http://purl.org/dc/elements/1.1/" viewBox="0 0 1024 1024">
 <metadata>
  <rdf:RDF>
   <cc:Work rdf:about="">
    <dc:format>image/svg+xml</dc:format>
    <dc:type rdf:resource="http://purl.org/dc/dcmitype/StillImage"/>
    <dc:title/>
   </cc:Work>
  </rdf:RDF>
 </metadata>
 <path d="m511.98,14.589c-12.503,0-24.967,3.2531-36.176,9.7201l-334.12,192.91c-22.419,12.934-36.254,36.803-36.254,62.671v385.82c0,25.868,13.835,49.815,36.254,62.749l197.11,113.82-0.0392,122.05c-0.0392,34.647,37.469,56.282,67.453,38.998l141.33-81.602,5.448-3.1355,329.35-190.13c22.419-12.934,36.254-36.881,36.254-62.749v-385.82c0-25.868-13.835-49.737-36.254-62.671l-334.13-192.88c-11.209-6.467-23.673-9.7201-36.215-9.7201z" fill-rule="nonzero" fill="#48a6ff"/>
 <path d="M485.64,799.25,242.52,658.9c-16.305-9.4065-26.377-26.809-26.377-45.661v-280.75c0-18.813,10.073-36.215,26.377-45.622l243.12-140.39c16.305-9.4065,36.411-9.4065,52.716,0l243.12,140.39c16.305,9.4065,26.338,26.809,26.378,45.622v280.75c0,18.852-10.073,36.254-26.378,45.661l-243.12,140.35c-16.305,9.4065-36.411,9.4065-52.716,0z" fill-rule="nonzero" fill="#FFF"/>
 <path d="m359.83,412.41c-33.183,0-60.083,26.9-60.083,60.083s26.9,60.115,60.083,60.115,60.083-26.933,60.083-60.115c0-33.183-26.901-60.083-60.083-60.083zm152.19,0c-33.183,0-60.115,26.9-60.115,60.083s26.933,60.115,60.115,60.115c33.183,0,60.083-26.933,60.083-60.115,0-33.183-26.901-60.083-60.083-60.083zm152.16,0c-33.183,0-60.083,26.9-60.083,60.083s26.9,60.115,60.083,60.115c33.215,0,60.083-26.933,60.083-60.115,0-33.183-26.868-60.083-60.083-60.083z" fill-rule="nonzero" fill="#48a6ff"/>
</svg>
