<svg xmlns:svg="http://www.w3.org/2000/svg" xmlns="http://www.w3.org/2000/svg"
   version="1.1"
   width="512" height="512" viewBox="0 0 512 512" enable-background="new 0 0 512 512" xml:space="preserve">
  <style>
    .light {
      fill: #48a6ff;
    }
    .medium {
      fill: #007ff6;
    }
    .dark {
      fill: #0061bc;
    }
  </style>
  <g transform="translate(0,-540.36218)">
    <g transform="matrix(1.6363875,0,0,1.6363875,-178.81482,-486.22323)">
      <path class="medium"
         d="m 265.71037,931.93259 0.004,-50.44383 c -14.24889,8.2265 -28.50868,16.448 -42.75748,24.6745 0,-16.4564 -0.005,-32.9097 -0.005,-49.3663 -14.24867,-8.2267 -28.48398,-16.4452 -42.73292,-24.6718 1.2e-4,-32.8994 -0.01,-65.8336 -0.01,-98.7327 -14.25948,-8.2327 -28.52748,-16.4704 -42.78707,-24.7032 l 0.006,149.1765 z" />
      <path class="dark"
         d="m 394.00069,857.88636 0.01,-149.1766 c -14.3671,8.2626 -28.651,16.5301 -42.7589,24.9395 2e-4,32.8215 -0.011,65.6592 -0.011,98.4807 -28.4939,16.4649 -57.0718,32.8661 -85.53549,49.3482 -2.1e-4,16.8111 -0.0391,33.6213 -0.039,50.43233 l 0.058,0.038 z" />
      <path
         d="m 265.73581,684.56466 c -28.418,16.4071 -56.83601,32.8145 -85.2541,49.2217 -0.55291,32.8505 -0.111,65.729 -0.25401,98.5916 14.2488,8.2264 28.49261,16.4617 42.74144,24.6883 0,16.4566 0,32.9134 -1e-4,49.3702 42.74759,-24.7023 85.50925,-49.3803 128.27145,-74.0576 -2e-4,-32.9131 -2e-4,-65.8265 -2e-4,-98.7397 -28.7508,-15.9209 -56.9549,-32.8044 -85.50815,-49.0736 z"
         style="fill:#ffffff" />
      <g transform="matrix(0.67746016,0,0,0.67746016,953.10339,184.90316)">
        <path class="light"
           d="m -1053.0636,900.93362 c 0.394,12.93267 -12.085,24.19564 -24.9112,22.48376 -12.888,-0.93622 -22.8108,-14.46033 -19.8305,-27.03854 2.2309,-12.71527 16.6478,-21.23072 28.862,-17.0296 9.2686,2.76386 16.0213,11.90115 15.8797,21.58438 z" />
        <path class="medium"
           d="m -992.04236,900.93362 c 0.39395,12.93267 -12.08504,24.19564 -24.91124,22.48376 -12.888,-0.93622 -22.8108,-14.46033 -19.8305,-27.03854 2.231,-12.71527 16.6478,-21.23072 28.862,-17.0296 9.26862,2.76386 16.02132,11.90115 15.87974,21.58438 z" />
        <path class="dark"
           d="m -931.02119,900.93362 c 0.39395,12.93267 -12.08503,24.19564 -24.91121,22.48376 -12.88799,-0.93622 -22.81082,-14.46033 -19.83053,-27.03854 2.23096,-12.71527 16.64778,-21.23072 28.86199,-17.0296 9.26863,2.76386 16.02133,11.90115 15.87975,21.58438 z" />
      </g>
      <path class="light"
         d="m 138.28584,709.22686 c 14.1033,8.155 28.18399,16.283 42.19893,24.2782 28.41819,-16.4071 56.83137,-32.8115 85.24937,-49.2188 28.48045,16.2977 57.11875,33.2754 85.49745,49.1484 13.993,-8.0788 27.9977,-16.1286 41.9907,-24.2075 l -127.46833,-73.5941 z" />
    </g>
  </g>
</svg>
